<mxfile modified="2020-06-11T09:57:02.122Z" host="app.diagrams.net" agent="5.0 (Macintosh; Intel Mac OS X 10_14_6) AppleWebKit/537.36 (KHTML, like Gecko) Chrome/69.0.3497.100 Safari/537.36" etag="4k-IQgFbSQb1qmmtJSGK" version="13.2.1" type="github">
  <diagram id="Z4rZu4gzG-g9UAVYbysw" name="第 1 页">
    <mxGraphModel dx="1186" dy="1090" grid="0" gridSize="10" guides="1" tooltips="1" connect="1" arrows="1" fold="1" page="0" pageScale="1" pageWidth="827" pageHeight="1169" math="0" shadow="0">
      <root>
        <mxCell id="0" />
        <mxCell id="1" parent="0" />
        <mxCell id="gegUZrvBjKPwMkM6OcZD-41" value="" style="rounded=1;whiteSpace=wrap;html=1;strokeColor=#66B2FF;dashed=1;" parent="1" vertex="1">
          <mxGeometry x="440" y="270" width="288" height="120" as="geometry" />
        </mxCell>
        <mxCell id="gegUZrvBjKPwMkM6OcZD-2" value="" style="rounded=0;whiteSpace=wrap;html=1;strokeColor=none;fillColor=none;" parent="1" vertex="1">
          <mxGeometry x="124" y="-130" width="796" height="740" as="geometry" />
        </mxCell>
        <mxCell id="gegUZrvBjKPwMkM6OcZD-3" value="" style="rounded=1;whiteSpace=wrap;html=1;strokeColor=#66B2FF;dashed=1;" parent="1" vertex="1">
          <mxGeometry x="140" y="480" width="770" height="120" as="geometry" />
        </mxCell>
        <mxCell id="gegUZrvBjKPwMkM6OcZD-4" value="支&lt;br&gt;撑&lt;br&gt;层" style="text;html=1;resizable=0;autosize=1;align=center;verticalAlign=middle;points=[];fillColor=none;strokeColor=none;rounded=0;dashed=1;fontSize=21;" parent="1" vertex="1">
          <mxGeometry x="145" y="501" width="40" height="80" as="geometry" />
        </mxCell>
        <mxCell id="gegUZrvBjKPwMkM6OcZD-11" value="资源加速器" style="rounded=0;whiteSpace=wrap;html=1;dashed=1;strokeColor=#666666;fontSize=16;fillColor=#f5f5f5;gradientColor=#b3b3b3;" parent="1" vertex="1">
          <mxGeometry x="190" y="548" width="150" height="40" as="geometry" />
        </mxCell>
        <mxCell id="gegUZrvBjKPwMkM6OcZD-13" value="" style="rounded=1;whiteSpace=wrap;html=1;dashed=1;strokeColor=#66B2FF;fontSize=21;" parent="1" vertex="1">
          <mxGeometry x="740" y="-120" width="170" height="590" as="geometry" />
        </mxCell>
        <mxCell id="gegUZrvBjKPwMkM6OcZD-14" value="消息中间件&lt;br style=&quot;font-size: 16px&quot;&gt;" style="rounded=0;whiteSpace=wrap;html=1;dashed=1;strokeColor=#666666;fontSize=16;fillColor=#f5f5f5;gradientColor=#b3b3b3;" parent="1" vertex="1">
          <mxGeometry x="190" y="494" width="150" height="40" as="geometry" />
        </mxCell>
        <mxCell id="gegUZrvBjKPwMkM6OcZD-19" value="对象存储服务" style="rounded=0;whiteSpace=wrap;html=1;dashed=1;strokeColor=#666666;fontSize=16;fillColor=#f5f5f5;gradientColor=#b3b3b3;" parent="1" vertex="1">
          <mxGeometry x="372.5" y="548" width="150" height="40" as="geometry" />
        </mxCell>
        <mxCell id="gegUZrvBjKPwMkM6OcZD-20" value="&lt;span style=&quot;font-size: 16px&quot;&gt;弹性计算服务&lt;/span&gt;" style="rounded=0;whiteSpace=wrap;html=1;dashed=1;strokeColor=#666666;fontSize=21;fillColor=#f5f5f5;gradientColor=#b3b3b3;" parent="1" vertex="1">
          <mxGeometry x="372.5" y="494" width="150" height="40" as="geometry" />
        </mxCell>
        <mxCell id="gegUZrvBjKPwMkM6OcZD-21" value="文件存储平台" style="rounded=0;whiteSpace=wrap;html=1;dashed=1;strokeColor=#666666;fontSize=16;fillColor=#f5f5f5;gradientColor=#b3b3b3;" parent="1" vertex="1">
          <mxGeometry x="556.5" y="548" width="150" height="40" as="geometry" />
        </mxCell>
        <mxCell id="gegUZrvBjKPwMkM6OcZD-22" value="资源调度中心" style="rounded=0;whiteSpace=wrap;html=1;dashed=1;strokeColor=#666666;fontSize=16;fillColor=#f5f5f5;gradientColor=#b3b3b3;" parent="1" vertex="1">
          <mxGeometry x="556.5" y="494" width="150" height="40" as="geometry" />
        </mxCell>
        <mxCell id="gegUZrvBjKPwMkM6OcZD-23" value="负载均衡" style="rounded=0;whiteSpace=wrap;html=1;dashed=1;strokeColor=#666666;fontSize=16;fillColor=#f5f5f5;gradientColor=#b3b3b3;" parent="1" vertex="1">
          <mxGeometry x="740" y="548" width="150" height="40" as="geometry" />
        </mxCell>
        <mxCell id="gegUZrvBjKPwMkM6OcZD-24" value="网络服务" style="rounded=0;whiteSpace=wrap;html=1;dashed=1;strokeColor=#666666;fontSize=16;fillColor=#f5f5f5;gradientColor=#b3b3b3;" parent="1" vertex="1">
          <mxGeometry x="740" y="497" width="150" height="40" as="geometry" />
        </mxCell>
        <mxCell id="gegUZrvBjKPwMkM6OcZD-25" value="运维体系" style="text;html=1;resizable=0;autosize=1;align=center;verticalAlign=middle;points=[];fillColor=none;strokeColor=none;rounded=0;dashed=1;fontSize=21;" parent="1" vertex="1">
          <mxGeometry x="775" y="-100" width="100" height="30" as="geometry" />
        </mxCell>
        <mxCell id="gegUZrvBjKPwMkM6OcZD-26" value="" style="rounded=1;whiteSpace=wrap;html=1;strokeColor=#66B2FF;dashed=1;" parent="1" vertex="1">
          <mxGeometry x="137" y="270" width="288" height="120" as="geometry" />
        </mxCell>
        <mxCell id="gegUZrvBjKPwMkM6OcZD-27" value="" style="rounded=1;whiteSpace=wrap;html=1;strokeColor=#66B2FF;dashed=1;" parent="1" vertex="1">
          <mxGeometry x="140" y="406" width="588" height="60" as="geometry" />
        </mxCell>
        <mxCell id="gegUZrvBjKPwMkM6OcZD-29" value="" style="rounded=1;whiteSpace=wrap;html=1;strokeColor=#66B2FF;dashed=1;" parent="1" vertex="1">
          <mxGeometry x="140" y="-45" width="590" height="225" as="geometry" />
        </mxCell>
        <mxCell id="gegUZrvBjKPwMkM6OcZD-30" value="安全组件" style="rounded=0;whiteSpace=wrap;html=1;dashed=1;strokeColor=#666666;fontSize=16;fillColor=#f5f5f5;gradientColor=#b3b3b3;" parent="1" vertex="1">
          <mxGeometry x="760" y="62" width="130" height="40" as="geometry" />
        </mxCell>
        <mxCell id="gegUZrvBjKPwMkM6OcZD-31" value="发布平台" style="rounded=0;whiteSpace=wrap;html=1;dashed=1;strokeColor=#6c8ebf;fontSize=16;fillColor=#dae8fc;gradientColor=#7ea6e0;" parent="1" vertex="1">
          <mxGeometry x="762" y="416" width="130" height="40" as="geometry" />
        </mxCell>
        <mxCell id="gegUZrvBjKPwMkM6OcZD-32" value="监控中心" style="rounded=0;whiteSpace=wrap;html=1;dashed=1;strokeColor=#666666;fontSize=16;fillColor=#f5f5f5;gradientColor=#b3b3b3;" parent="1" vertex="1">
          <mxGeometry x="762" y="365" width="130" height="40" as="geometry" />
        </mxCell>
        <mxCell id="gegUZrvBjKPwMkM6OcZD-33" value="日志服务" style="rounded=0;whiteSpace=wrap;html=1;dashed=1;strokeColor=#666666;fontSize=16;fillColor=#f5f5f5;gradientColor=#b3b3b3;" parent="1" vertex="1">
          <mxGeometry x="760" y="315" width="130" height="40" as="geometry" />
        </mxCell>
        <mxCell id="gegUZrvBjKPwMkM6OcZD-34" value="配置中心" style="rounded=0;whiteSpace=wrap;html=1;dashed=1;strokeColor=#666666;fontSize=16;fillColor=#f5f5f5;gradientColor=#b3b3b3;" parent="1" vertex="1">
          <mxGeometry x="760" y="264" width="130" height="40" as="geometry" />
        </mxCell>
        <mxCell id="gegUZrvBjKPwMkM6OcZD-35" value="质量大盘" style="rounded=0;whiteSpace=wrap;html=1;dashed=1;strokeColor=#6c8ebf;fontSize=16;fillColor=#dae8fc;gradientColor=#7ea6e0;" parent="1" vertex="1">
          <mxGeometry x="760" y="163" width="130" height="40" as="geometry" />
        </mxCell>
        <mxCell id="gegUZrvBjKPwMkM6OcZD-36" value="故障管理" style="rounded=0;whiteSpace=wrap;html=1;dashed=1;strokeColor=#666666;fontSize=16;fillColor=#f5f5f5;gradientColor=#b3b3b3;" parent="1" vertex="1">
          <mxGeometry x="760" y="112.5" width="130" height="40" as="geometry" />
        </mxCell>
        <mxCell id="gegUZrvBjKPwMkM6OcZD-37" value="资源管理" style="rounded=0;whiteSpace=wrap;html=1;dashed=1;strokeColor=#666666;fontSize=16;fillColor=#f5f5f5;gradientColor=#b3b3b3;" parent="1" vertex="1">
          <mxGeometry x="762" y="10" width="130" height="40" as="geometry" />
        </mxCell>
        <mxCell id="gegUZrvBjKPwMkM6OcZD-38" value="基&lt;br&gt;础&lt;br&gt;平&lt;br&gt;台&lt;br&gt;" style="text;html=1;resizable=0;autosize=1;align=center;verticalAlign=middle;points=[];fillColor=none;strokeColor=none;rounded=0;dashed=1;fontSize=21;" parent="1" vertex="1">
          <mxGeometry x="143" y="275" width="40" height="110" as="geometry" />
        </mxCell>
        <mxCell id="gegUZrvBjKPwMkM6OcZD-40" value="分布式数据中心" style="rounded=0;whiteSpace=wrap;html=1;dashed=1;strokeColor=#666666;fontSize=16;fillColor=#f5f5f5;gradientColor=#b3b3b3;" parent="1" vertex="1">
          <mxGeometry x="243" y="417" width="119" height="40" as="geometry" />
        </mxCell>
        <mxCell id="gegUZrvBjKPwMkM6OcZD-47" value="&lt;span style=&quot;font-size: 16px&quot;&gt;消息平台&lt;/span&gt;" style="rounded=0;whiteSpace=wrap;html=1;dashed=1;strokeColor=#6c8ebf;fontSize=21;fillColor=#dae8fc;gradientColor=#7ea6e0;" parent="1" vertex="1">
          <mxGeometry x="183" y="280.5" width="100" height="40" as="geometry" />
        </mxCell>
        <mxCell id="gegUZrvBjKPwMkM6OcZD-48" value="&lt;span style=&quot;font-size: 16px&quot;&gt;任务调度平台&lt;/span&gt;" style="rounded=0;whiteSpace=wrap;html=1;dashed=1;strokeColor=#666666;fontSize=21;fillColor=#f5f5f5;gradientColor=#b3b3b3;" parent="1" vertex="1">
          <mxGeometry x="295" y="280.5" width="113" height="40" as="geometry" />
        </mxCell>
        <mxCell id="gegUZrvBjKPwMkM6OcZD-49" value="&lt;span style=&quot;font-size: 16px;&quot;&gt;风控系统&lt;/span&gt;" style="rounded=0;whiteSpace=wrap;html=1;dashed=1;strokeColor=#666666;fontSize=16;fillColor=#f5f5f5;gradientColor=#b3b3b3;" parent="1" vertex="1">
          <mxGeometry x="183" y="339.5" width="100" height="40" as="geometry" />
        </mxCell>
        <mxCell id="gegUZrvBjKPwMkM6OcZD-50" value="&lt;span style=&quot;font-size: 16px;&quot;&gt;实时分析系统&lt;/span&gt;" style="rounded=0;whiteSpace=wrap;html=1;dashed=1;strokeColor=#666666;fontSize=16;fillColor=#f5f5f5;gradientColor=#b3b3b3;" parent="1" vertex="1">
          <mxGeometry x="298" y="340.5" width="110" height="40" as="geometry" />
        </mxCell>
        <mxCell id="gegUZrvBjKPwMkM6OcZD-52" value="数据平台" style="text;html=1;resizable=0;autosize=1;align=center;verticalAlign=middle;points=[];fillColor=none;strokeColor=none;rounded=0;dashed=1;fontSize=21;" parent="1" vertex="1">
          <mxGeometry x="143" y="422" width="100" height="30" as="geometry" />
        </mxCell>
        <mxCell id="gegUZrvBjKPwMkM6OcZD-54" value="" style="rounded=1;whiteSpace=wrap;html=1;strokeColor=#66B2FF;dashed=1;" parent="1" vertex="1">
          <mxGeometry x="440" y="270" width="288" height="120" as="geometry" />
        </mxCell>
        <mxCell id="gegUZrvBjKPwMkM6OcZD-39" value="&lt;span style=&quot;font-size: 16px&quot;&gt;云计算&lt;/span&gt;" style="rounded=0;whiteSpace=wrap;html=1;dashed=1;strokeColor=#666666;fontSize=21;fillColor=#f5f5f5;gradientColor=#b3b3b3;" parent="1" vertex="1">
          <mxGeometry x="484" y="282" width="100" height="40" as="geometry" />
        </mxCell>
        <mxCell id="gegUZrvBjKPwMkM6OcZD-42" value="技&lt;br&gt;术&lt;br&gt;平&lt;br&gt;台&lt;br&gt;" style="text;html=1;resizable=0;autosize=1;align=center;verticalAlign=middle;points=[];fillColor=none;strokeColor=none;rounded=0;dashed=1;fontSize=21;" parent="1" vertex="1">
          <mxGeometry x="445" y="275" width="40" height="110" as="geometry" />
        </mxCell>
        <mxCell id="gegUZrvBjKPwMkM6OcZD-44" value="&lt;font style=&quot;font-size: 16px&quot;&gt;移动技术&lt;/font&gt;" style="rounded=0;whiteSpace=wrap;html=1;dashed=1;strokeColor=#666666;fontSize=21;fillColor=#f5f5f5;gradientColor=#b3b3b3;" parent="1" vertex="1">
          <mxGeometry x="604" y="282" width="113" height="40" as="geometry" />
        </mxCell>
        <mxCell id="gegUZrvBjKPwMkM6OcZD-45" value="&lt;span style=&quot;font-size: 16px&quot;&gt;生物识别&lt;/span&gt;" style="rounded=0;whiteSpace=wrap;html=1;dashed=1;strokeColor=#666666;fontSize=21;fillColor=#f5f5f5;gradientColor=#b3b3b3;" parent="1" vertex="1">
          <mxGeometry x="484" y="341" width="100" height="40" as="geometry" />
        </mxCell>
        <mxCell id="gegUZrvBjKPwMkM6OcZD-46" value="&lt;span style=&quot;font-size: 16px&quot;&gt;AI决策&lt;/span&gt;" style="rounded=0;whiteSpace=wrap;html=1;dashed=1;strokeColor=#666666;fontSize=21;fillColor=#f5f5f5;gradientColor=#b3b3b3;" parent="1" vertex="1">
          <mxGeometry x="604" y="341" width="113" height="40" as="geometry" />
        </mxCell>
        <mxCell id="gegUZrvBjKPwMkM6OcZD-55" value="离线数据仓储" style="rounded=0;whiteSpace=wrap;html=1;dashed=1;strokeColor=#666666;fontSize=16;fillColor=#f5f5f5;gradientColor=#b3b3b3;" parent="1" vertex="1">
          <mxGeometry x="472.5" y="416" width="105" height="40" as="geometry" />
        </mxCell>
        <mxCell id="gegUZrvBjKPwMkM6OcZD-56" value="实时数据计算平台" style="rounded=0;whiteSpace=wrap;html=1;dashed=1;strokeColor=#666666;fontSize=16;fillColor=#f5f5f5;gradientColor=#b3b3b3;" parent="1" vertex="1">
          <mxGeometry x="582" y="417" width="133" height="40" as="geometry" />
        </mxCell>
        <mxCell id="gegUZrvBjKPwMkM6OcZD-57" value="" style="rounded=1;whiteSpace=wrap;html=1;strokeColor=#66B2FF;dashed=1;" parent="1" vertex="1">
          <mxGeometry x="140" y="192" width="588" height="60" as="geometry" />
        </mxCell>
        <mxCell id="gegUZrvBjKPwMkM6OcZD-58" value="资金账户" style="rounded=0;whiteSpace=wrap;html=1;dashed=1;strokeColor=#666666;fontSize=16;fillColor=#f5f5f5;gradientColor=#b3b3b3;" parent="1" vertex="1">
          <mxGeometry x="236" y="203" width="87" height="40" as="geometry" />
        </mxCell>
        <mxCell id="gegUZrvBjKPwMkM6OcZD-59" value="资金核心" style="text;html=1;resizable=0;autosize=1;align=center;verticalAlign=middle;points=[];fillColor=none;strokeColor=none;rounded=0;dashed=1;fontSize=21;" parent="1" vertex="1">
          <mxGeometry x="143" y="208" width="94" height="29" as="geometry" />
        </mxCell>
        <mxCell id="gegUZrvBjKPwMkM6OcZD-60" value="在线支付" style="rounded=0;whiteSpace=wrap;html=1;dashed=1;strokeColor=#666666;fontSize=16;fillColor=#f5f5f5;gradientColor=#b3b3b3;" parent="1" vertex="1">
          <mxGeometry x="335" y="203" width="87" height="40" as="geometry" />
        </mxCell>
        <mxCell id="gegUZrvBjKPwMkM6OcZD-61" value="结算系统" style="rounded=0;whiteSpace=wrap;html=1;dashed=1;strokeColor=#666666;fontSize=16;fillColor=#f5f5f5;gradientColor=#b3b3b3;" parent="1" vertex="1">
          <mxGeometry x="434" y="203" width="87" height="40" as="geometry" />
        </mxCell>
        <mxCell id="gegUZrvBjKPwMkM6OcZD-62" value="对账平台" style="rounded=0;whiteSpace=wrap;html=1;dashed=1;strokeColor=#666666;fontSize=16;fillColor=#f5f5f5;gradientColor=#b3b3b3;" parent="1" vertex="1">
          <mxGeometry x="631.5" y="203" width="87" height="40" as="geometry" />
        </mxCell>
        <mxCell id="gegUZrvBjKPwMkM6OcZD-63" value="财务风控" style="rounded=0;whiteSpace=wrap;html=1;dashed=1;strokeColor=#666666;fontSize=16;fillColor=#f5f5f5;gradientColor=#b3b3b3;" parent="1" vertex="1">
          <mxGeometry x="534" y="203" width="87" height="40" as="geometry" />
        </mxCell>
        <mxCell id="gegUZrvBjKPwMkM6OcZD-64" value="业&lt;br&gt;&lt;br&gt;务&lt;br&gt;&lt;br&gt;中&lt;br&gt;&lt;br&gt;台&lt;br&gt;&lt;br&gt;" style="text;html=1;resizable=0;autosize=1;align=center;verticalAlign=middle;points=[];fillColor=none;strokeColor=none;rounded=0;dashed=1;fontSize=21;" parent="1" vertex="1">
          <mxGeometry x="154" y="-27.5" width="31" height="204" as="geometry" />
        </mxCell>
        <mxCell id="gegUZrvBjKPwMkM6OcZD-65" value="&lt;span style=&quot;font-size: 16px&quot;&gt;头条社区&lt;/span&gt;" style="rounded=0;whiteSpace=wrap;html=1;dashed=1;strokeColor=#666666;fontSize=21;fillColor=#f5f5f5;gradientColor=#b3b3b3;" parent="1" vertex="1">
          <mxGeometry x="210" y="120" width="100" height="40" as="geometry" />
        </mxCell>
        <mxCell id="gegUZrvBjKPwMkM6OcZD-66" value="&lt;span style=&quot;font-size: 16px&quot;&gt;展业工具&lt;/span&gt;" style="rounded=0;whiteSpace=wrap;html=1;dashed=1;strokeColor=#666666;fontSize=21;fillColor=#f5f5f5;gradientColor=#b3b3b3;" parent="1" vertex="1">
          <mxGeometry x="210" y="70" width="100" height="40" as="geometry" />
        </mxCell>
        <mxCell id="gegUZrvBjKPwMkM6OcZD-67" value="&lt;span style=&quot;font-size: 16px&quot;&gt;会员体系&lt;/span&gt;" style="rounded=0;whiteSpace=wrap;html=1;dashed=1;strokeColor=#666666;fontSize=21;fillColor=#f5f5f5;gradientColor=#b3b3b3;" parent="1" vertex="1">
          <mxGeometry x="210" y="20" width="100" height="40" as="geometry" />
        </mxCell>
        <mxCell id="gegUZrvBjKPwMkM6OcZD-68" value="&lt;span style=&quot;font-size: 16px&quot;&gt;账户系统&lt;/span&gt;" style="rounded=0;whiteSpace=wrap;html=1;dashed=1;strokeColor=#6c8ebf;fontSize=21;fillColor=#dae8fc;gradientColor=#7ea6e0;" parent="1" vertex="1">
          <mxGeometry x="210" y="-30" width="100" height="40" as="geometry" />
        </mxCell>
        <mxCell id="gegUZrvBjKPwMkM6OcZD-72" value="&lt;span style=&quot;font-size: 16px&quot;&gt;渠道管理&lt;/span&gt;" style="rounded=0;whiteSpace=wrap;html=1;dashed=1;strokeColor=#666666;fontSize=21;fillColor=#f5f5f5;gradientColor=#b3b3b3;" parent="1" vertex="1">
          <mxGeometry x="345" y="122.5" width="100" height="40" as="geometry" />
        </mxCell>
        <mxCell id="gegUZrvBjKPwMkM6OcZD-73" value="&lt;span style=&quot;font-size: 16px&quot;&gt;佣金结算&lt;/span&gt;" style="rounded=0;whiteSpace=wrap;html=1;dashed=1;strokeColor=#666666;fontSize=21;fillColor=#f5f5f5;gradientColor=#b3b3b3;" parent="1" vertex="1">
          <mxGeometry x="345" y="72.5" width="100" height="40" as="geometry" />
        </mxCell>
        <mxCell id="gegUZrvBjKPwMkM6OcZD-74" value="&lt;span style=&quot;font-size: 16px&quot;&gt;订单系统&lt;/span&gt;" style="rounded=0;whiteSpace=wrap;html=1;dashed=1;strokeColor=#666666;fontSize=21;fillColor=#f5f5f5;gradientColor=#b3b3b3;" parent="1" vertex="1">
          <mxGeometry x="345" y="22.5" width="100" height="40" as="geometry" />
        </mxCell>
        <mxCell id="gegUZrvBjKPwMkM6OcZD-75" value="&lt;span style=&quot;font-size: 16px&quot;&gt;积分商城&lt;/span&gt;" style="rounded=0;whiteSpace=wrap;html=1;dashed=1;strokeColor=#666666;fontSize=21;fillColor=#f5f5f5;gradientColor=#b3b3b3;" parent="1" vertex="1">
          <mxGeometry x="345" y="-27.5" width="100" height="40" as="geometry" />
        </mxCell>
        <mxCell id="gegUZrvBjKPwMkM6OcZD-76" value="&lt;span style=&quot;font-size: 16px&quot;&gt;产品平台&lt;/span&gt;" style="rounded=0;whiteSpace=wrap;html=1;dashed=1;strokeColor=#666666;fontSize=21;fillColor=#f5f5f5;gradientColor=#b3b3b3;" parent="1" vertex="1">
          <mxGeometry x="483.5" y="122" width="100" height="40" as="geometry" />
        </mxCell>
        <mxCell id="gegUZrvBjKPwMkM6OcZD-77" value="&lt;span style=&quot;font-size: 16px&quot;&gt;理赔保全&lt;/span&gt;" style="rounded=0;whiteSpace=wrap;html=1;dashed=1;strokeColor=#666666;fontSize=21;fillColor=#f5f5f5;gradientColor=#b3b3b3;" parent="1" vertex="1">
          <mxGeometry x="483.5" y="72" width="100" height="40" as="geometry" />
        </mxCell>
        <mxCell id="gegUZrvBjKPwMkM6OcZD-78" value="&lt;span style=&quot;font-size: 16px&quot;&gt;保险网关&lt;/span&gt;" style="rounded=0;whiteSpace=wrap;html=1;dashed=1;strokeColor=#666666;fontSize=21;fillColor=#f5f5f5;gradientColor=#b3b3b3;" parent="1" vertex="1">
          <mxGeometry x="483.5" y="22" width="100" height="40" as="geometry" />
        </mxCell>
        <mxCell id="gegUZrvBjKPwMkM6OcZD-79" value="&lt;span style=&quot;font-size: 16px&quot;&gt;出单系统&lt;/span&gt;" style="rounded=0;whiteSpace=wrap;html=1;dashed=1;strokeColor=#666666;fontSize=21;fillColor=#f5f5f5;gradientColor=#b3b3b3;" parent="1" vertex="1">
          <mxGeometry x="483.5" y="-28" width="100" height="40" as="geometry" />
        </mxCell>
        <mxCell id="gegUZrvBjKPwMkM6OcZD-80" value="&lt;span style=&quot;font-size: 16px&quot;&gt;决策系统&lt;/span&gt;" style="rounded=0;whiteSpace=wrap;html=1;dashed=1;strokeColor=#666666;fontSize=21;fillColor=#f5f5f5;gradientColor=#b3b3b3;" parent="1" vertex="1">
          <mxGeometry x="618.5" y="122.5" width="100" height="40" as="geometry" />
        </mxCell>
        <mxCell id="gegUZrvBjKPwMkM6OcZD-81" value="&lt;span style=&quot;font-size: 16px&quot;&gt;微信生态&lt;/span&gt;" style="rounded=0;whiteSpace=wrap;html=1;dashed=1;strokeColor=#666666;fontSize=21;fillColor=#f5f5f5;gradientColor=#b3b3b3;" parent="1" vertex="1">
          <mxGeometry x="618.5" y="72.5" width="100" height="40" as="geometry" />
        </mxCell>
        <mxCell id="gegUZrvBjKPwMkM6OcZD-82" value="&lt;span style=&quot;font-size: 16px&quot;&gt;营销平台&lt;/span&gt;" style="rounded=0;whiteSpace=wrap;html=1;dashed=1;strokeColor=#6c8ebf;fontSize=21;fillColor=#dae8fc;gradientColor=#7ea6e0;" parent="1" vertex="1">
          <mxGeometry x="618.5" y="22.5" width="100" height="40" as="geometry" />
        </mxCell>
        <mxCell id="gegUZrvBjKPwMkM6OcZD-83" value="&lt;span style=&quot;font-size: 16px&quot;&gt;运营平台&lt;/span&gt;" style="rounded=0;whiteSpace=wrap;html=1;dashed=1;strokeColor=#6c8ebf;fontSize=21;fillColor=#dae8fc;gradientColor=#7ea6e0;" parent="1" vertex="1">
          <mxGeometry x="618.5" y="-27.5" width="100" height="40" as="geometry" />
        </mxCell>
        <mxCell id="gegUZrvBjKPwMkM6OcZD-90" value="" style="rounded=1;whiteSpace=wrap;html=1;strokeColor=#66B2FF;dashed=1;" parent="1" vertex="1">
          <mxGeometry x="137" y="-120" width="593" height="60" as="geometry" />
        </mxCell>
        <mxCell id="gegUZrvBjKPwMkM6OcZD-91" value="业务系统" style="text;html=1;resizable=0;autosize=1;align=center;verticalAlign=middle;points=[];fillColor=none;strokeColor=none;rounded=0;dashed=1;fontSize=21;" parent="1" vertex="1">
          <mxGeometry x="150" y="-105" width="94" height="29" as="geometry" />
        </mxCell>
        <mxCell id="gegUZrvBjKPwMkM6OcZD-92" value="&lt;span style=&quot;font-size: 16px&quot;&gt;i云保 App&lt;/span&gt;" style="rounded=0;whiteSpace=wrap;html=1;dashed=1;strokeColor=#6c8ebf;fontSize=21;fillColor=#dae8fc;gradientColor=#7ea6e0;" parent="1" vertex="1">
          <mxGeometry x="253" y="-110" width="76" height="40" as="geometry" />
        </mxCell>
        <mxCell id="gegUZrvBjKPwMkM6OcZD-94" value="&lt;span style=&quot;font-size: 16px;&quot;&gt;云 服 务&lt;/span&gt;&lt;br style=&quot;font-size: 16px;&quot;&gt;" style="rounded=0;whiteSpace=wrap;html=1;dashed=1;strokeColor=#6c8ebf;fontSize=16;fillColor=#dae8fc;gradientColor=#7ea6e0;" parent="1" vertex="1">
          <mxGeometry x="341.5" y="-110" width="69" height="40" as="geometry" />
        </mxCell>
        <mxCell id="gegUZrvBjKPwMkM6OcZD-95" value="网 销 平 台&lt;br style=&quot;font-size: 16px&quot;&gt;" style="rounded=0;whiteSpace=wrap;html=1;dashed=1;strokeColor=#666666;fontSize=16;fillColor=#f5f5f5;gradientColor=#b3b3b3;" parent="1" vertex="1">
          <mxGeometry x="508" y="-110" width="100" height="40" as="geometry" />
        </mxCell>
        <mxCell id="gegUZrvBjKPwMkM6OcZD-96" value="云中介 SaaS&lt;br style=&quot;font-size: 16px&quot;&gt;" style="rounded=0;whiteSpace=wrap;html=1;dashed=1;strokeColor=#666666;fontSize=16;fillColor=#f5f5f5;gradientColor=#b3b3b3;" parent="1" vertex="1">
          <mxGeometry x="618" y="-110" width="100" height="40" as="geometry" />
        </mxCell>
        <mxCell id="gegUZrvBjKPwMkM6OcZD-97" value="系统大屏" style="rounded=0;whiteSpace=wrap;html=1;dashed=1;strokeColor=#666666;fontSize=16;fillColor=#f5f5f5;gradientColor=#b3b3b3;" parent="1" vertex="1">
          <mxGeometry x="760" y="-40" width="130" height="40" as="geometry" />
        </mxCell>
        <mxCell id="gegUZrvBjKPwMkM6OcZD-99" value="&lt;span style=&quot;font-size: 16px&quot;&gt;微 客 站&lt;/span&gt;&lt;br style=&quot;font-size: 16px&quot;&gt;" style="rounded=0;whiteSpace=wrap;html=1;dashed=1;strokeColor=#666666;fontSize=16;fillColor=#f5f5f5;gradientColor=#b3b3b3;" parent="1" vertex="1">
          <mxGeometry x="421" y="-110" width="77" height="40" as="geometry" />
        </mxCell>
        <mxCell id="gegUZrvBjKPwMkM6OcZD-100" value="规则模型" style="rounded=0;whiteSpace=wrap;html=1;dashed=1;strokeColor=#666666;fontSize=16;fillColor=#f5f5f5;gradientColor=#b3b3b3;" parent="1" vertex="1">
          <mxGeometry x="370" y="417" width="96" height="40" as="geometry" />
        </mxCell>
        <mxCell id="gegUZrvBjKPwMkM6OcZD-101" value="控制面板" style="rounded=0;whiteSpace=wrap;html=1;dashed=1;strokeColor=#666666;fontSize=16;fillColor=#f5f5f5;gradientColor=#b3b3b3;" parent="1" vertex="1">
          <mxGeometry x="760" y="213.5" width="130" height="40" as="geometry" />
        </mxCell>
      </root>
    </mxGraphModel>
  </diagram>
</mxfile>
